<mxfile host="app.diagrams.net" agent="Mozilla/5.0 (Windows NT 10.0; Win64; x64) AppleWebKit/537.36 (KHTML, like Gecko) Chrome/136.0.0.0 Safari/537.36" version="26.2.14">
  <diagram name="第 1 页" id="ij-Bpu87PRGgK9VtJWu_">
    <mxGraphModel dx="1426" dy="838" grid="1" gridSize="10" guides="1" tooltips="1" connect="1" arrows="1" fold="1" page="1" pageScale="1" pageWidth="1169" pageHeight="827" math="0" shadow="0">
      <root>
        <mxCell id="0" />
        <mxCell id="1" parent="0" />
        <mxCell id="zA1tRB65HFr1dKg4BN0M-9" style="edgeStyle=orthogonalEdgeStyle;rounded=0;orthogonalLoop=1;jettySize=auto;html=1;entryX=0;entryY=0.5;entryDx=0;entryDy=0;" edge="1" parent="1" source="zA1tRB65HFr1dKg4BN0M-2" target="zA1tRB65HFr1dKg4BN0M-6">
          <mxGeometry relative="1" as="geometry" />
        </mxCell>
        <mxCell id="zA1tRB65HFr1dKg4BN0M-2" value="nginx" style="rounded=0;whiteSpace=wrap;html=1;" vertex="1" parent="1">
          <mxGeometry x="290" y="370" width="120" height="60" as="geometry" />
        </mxCell>
        <mxCell id="zA1tRB65HFr1dKg4BN0M-8" style="edgeStyle=orthogonalEdgeStyle;rounded=0;orthogonalLoop=1;jettySize=auto;html=1;" edge="1" parent="1" source="zA1tRB65HFr1dKg4BN0M-3" target="zA1tRB65HFr1dKg4BN0M-2">
          <mxGeometry relative="1" as="geometry" />
        </mxCell>
        <mxCell id="zA1tRB65HFr1dKg4BN0M-3" value="client" style="ellipse;whiteSpace=wrap;html=1;aspect=fixed;" vertex="1" parent="1">
          <mxGeometry x="90" y="360" width="80" height="80" as="geometry" />
        </mxCell>
        <mxCell id="zA1tRB65HFr1dKg4BN0M-14" style="edgeStyle=orthogonalEdgeStyle;rounded=0;orthogonalLoop=1;jettySize=auto;html=1;" edge="1" parent="1" source="zA1tRB65HFr1dKg4BN0M-6" target="zA1tRB65HFr1dKg4BN0M-10">
          <mxGeometry relative="1" as="geometry" />
        </mxCell>
        <mxCell id="zA1tRB65HFr1dKg4BN0M-15" style="edgeStyle=orthogonalEdgeStyle;rounded=0;orthogonalLoop=1;jettySize=auto;html=1;" edge="1" parent="1" source="zA1tRB65HFr1dKg4BN0M-6" target="zA1tRB65HFr1dKg4BN0M-11">
          <mxGeometry relative="1" as="geometry" />
        </mxCell>
        <mxCell id="zA1tRB65HFr1dKg4BN0M-17" style="edgeStyle=orthogonalEdgeStyle;rounded=0;orthogonalLoop=1;jettySize=auto;html=1;" edge="1" parent="1" source="zA1tRB65HFr1dKg4BN0M-6" target="zA1tRB65HFr1dKg4BN0M-16">
          <mxGeometry relative="1" as="geometry" />
        </mxCell>
        <mxCell id="zA1tRB65HFr1dKg4BN0M-20" style="edgeStyle=orthogonalEdgeStyle;rounded=0;orthogonalLoop=1;jettySize=auto;html=1;entryX=0;entryY=0.5;entryDx=0;entryDy=0;" edge="1" parent="1" source="zA1tRB65HFr1dKg4BN0M-6" target="zA1tRB65HFr1dKg4BN0M-19">
          <mxGeometry relative="1" as="geometry" />
        </mxCell>
        <mxCell id="zA1tRB65HFr1dKg4BN0M-6" value="" style="rounded=0;whiteSpace=wrap;html=1;" vertex="1" parent="1">
          <mxGeometry x="520" y="255" width="200" height="290" as="geometry" />
        </mxCell>
        <mxCell id="zA1tRB65HFr1dKg4BN0M-4" value="xtrade" style="rounded=0;whiteSpace=wrap;html=1;" vertex="1" parent="1">
          <mxGeometry x="565" y="295" width="120" height="60" as="geometry" />
        </mxCell>
        <mxCell id="zA1tRB65HFr1dKg4BN0M-5" value="xtrade" style="rounded=0;whiteSpace=wrap;html=1;" vertex="1" parent="1">
          <mxGeometry x="565" y="455" width="120" height="60" as="geometry" />
        </mxCell>
        <mxCell id="zA1tRB65HFr1dKg4BN0M-7" value="&lt;div style=&quot;font-family: &amp;quot;Cascadia Code&amp;quot;, &amp;quot;Noto Sans Mono&amp;quot;, &amp;quot;Courier New&amp;quot;, &amp;quot;Noto Sans CJK SC&amp;quot;, 微软雅黑, Consolas, &amp;quot;Courier New&amp;quot;, monospace; font-weight: normal; font-size: 14.5px; line-height: 20px; white-space: pre;&quot;&gt;&lt;div style=&quot;&quot;&gt;&lt;span style=&quot;background-color: light-dark(#ffffff, var(--ge-dark-color, #121212));&quot;&gt;&lt;font style=&quot;color: rgb(255, 0, 0);&quot;&gt;/smart/api/v1&lt;/font&gt;&lt;/span&gt;&lt;/div&gt;&lt;/div&gt;" style="text;whiteSpace=wrap;html=1;" vertex="1" parent="1">
          <mxGeometry x="290" y="320" width="140" height="40" as="geometry" />
        </mxCell>
        <mxCell id="zA1tRB65HFr1dKg4BN0M-10" value="" style="shape=cylinder3;whiteSpace=wrap;html=1;boundedLbl=1;backgroundOutline=1;size=15;" vertex="1" parent="1">
          <mxGeometry x="940" y="220" width="60" height="80" as="geometry" />
        </mxCell>
        <mxCell id="zA1tRB65HFr1dKg4BN0M-11" value="" style="shape=cylinder3;whiteSpace=wrap;html=1;boundedLbl=1;backgroundOutline=1;size=15;" vertex="1" parent="1">
          <mxGeometry x="950" y="360" width="60" height="80" as="geometry" />
        </mxCell>
        <mxCell id="zA1tRB65HFr1dKg4BN0M-12" value="&lt;span style=&quot;color: rgb(0, 0, 0); font-family: Helvetica; font-size: 12px; font-style: normal; font-variant-ligatures: normal; font-variant-caps: normal; font-weight: 400; letter-spacing: normal; orphans: 2; text-align: center; text-indent: 0px; text-transform: none; widows: 2; word-spacing: 0px; -webkit-text-stroke-width: 0px; white-space: normal; text-decoration-thickness: initial; text-decoration-style: initial; text-decoration-color: initial; float: none; background-color: light-dark(rgb(249, 245, 245), rgb(34, 34, 34)); display: inline !important;&quot;&gt;第二数据源-写trade和order库&lt;/span&gt;" style="text;whiteSpace=wrap;html=1;" vertex="1" parent="1">
          <mxGeometry x="1030" y="390" width="190" height="40" as="geometry" />
        </mxCell>
        <mxCell id="zA1tRB65HFr1dKg4BN0M-13" value="&lt;span style=&quot;color: rgb(0, 0, 0); font-family: Helvetica; font-size: 12px; font-style: normal; font-variant-ligatures: normal; font-variant-caps: normal; font-weight: 400; letter-spacing: normal; orphans: 2; text-align: center; text-indent: 0px; text-transform: none; widows: 2; word-spacing: 0px; -webkit-text-stroke-width: 0px; white-space: normal; text-decoration-thickness: initial; text-decoration-style: initial; text-decoration-color: initial; float: none; background-color: light-dark(rgb(252, 248, 248), rgb(34, 34, 34)); display: inline !important;&quot;&gt;主数据源-深圳库&lt;/span&gt;" style="text;whiteSpace=wrap;html=1;" vertex="1" parent="1">
          <mxGeometry x="1010" y="250" width="120" height="40" as="geometry" />
        </mxCell>
        <mxCell id="zA1tRB65HFr1dKg4BN0M-16" value="redis集群" style="rounded=1;whiteSpace=wrap;html=1;" vertex="1" parent="1">
          <mxGeometry x="940" y="515" width="120" height="60" as="geometry" />
        </mxCell>
        <mxCell id="zA1tRB65HFr1dKg4BN0M-18" value="&lt;span style=&quot;color: rgb(0, 0, 0); font-family: Helvetica; font-size: 12px; font-style: normal; font-variant-ligatures: normal; font-variant-caps: normal; font-weight: 400; letter-spacing: normal; orphans: 2; text-align: center; text-indent: 0px; text-transform: none; widows: 2; word-spacing: 0px; -webkit-text-stroke-width: 0px; white-space: normal; text-decoration-thickness: initial; text-decoration-style: initial; text-decoration-color: initial; float: none; background-color: light-dark(rgb(249, 245, 245), rgb(34, 34, 34)); display: inline !important;&quot;&gt;深圳redis 集群&lt;/span&gt;" style="text;whiteSpace=wrap;html=1;" vertex="1" parent="1">
          <mxGeometry x="1070" y="530" width="190" height="40" as="geometry" />
        </mxCell>
        <mxCell id="zA1tRB65HFr1dKg4BN0M-19" value="KESB 生产环境" style="rounded=1;whiteSpace=wrap;html=1;" vertex="1" parent="1">
          <mxGeometry x="940" y="640" width="120" height="60" as="geometry" />
        </mxCell>
      </root>
    </mxGraphModel>
  </diagram>
</mxfile>
